<svg xmlns="http://www.w3.org/2000/svg" viewBox="0 0 420 360" fill="none" aria-hidden="true">
  <ellipse cx="210" cy="320" rx="180" ry="28" fill="#F2E6F7" opacity="0.5"/>
  <rect x="60" y="200" width="140" height="8" rx="4" fill="#F2DF33"/>
  <rect x="80" y="120" width="12" height="88" rx="6" fill="#fff"/>
  <path d="M74 120 Q86 80 98 120" stroke="#F2DF33" stroke-width="8" fill="none" stroke-linecap="round"/>
  <circle cx="86" cy="76" r="18" fill="#F2DF33" opacity="0.9"/>
  <rect x="250" y="160" width="100" height="70" rx="12" fill="#fff" opacity="0.95"/>
  <rect x="262" y="172" width="76" height="46" rx="6" fill="#E8DFF0"/>
  <rect x="268" y="230" width="64" height="8" rx="4" fill="#A98FD4"/>
  <circle cx="310" cy="100" r="36" fill="#F2E6F7"/>
  <circle cx="310" cy="100" r="22" fill="#fff"/>
  <rect x="302" y="128" width="16" height="40" rx="8" fill="#A98FD4"/>
  <ellipse cx="310" cy="172" rx="28" ry="10" fill="#4F1E60" opacity="0.15"/>
  <circle cx="150" cy="80" r="14" fill="#F2E6F7"/>
  <circle cx="340" cy="200" r="10" fill="#F2DF33" opacity="0.6"/>
  <circle cx="70" cy="180" r="8" fill="#fff" opacity="0.7"/>
  <path d="M30 260 Q120 220 200 250 T380 240" stroke="#fff" stroke-width="3" fill="none" opacity="0.25"/>
</svg>
